<mxfile host="app.diagrams.net" agent="Mozilla/5.0 (Windows NT 10.0; Win64; x64) AppleWebKit/537.36 (KHTML, like Gecko) Chrome/140.0.0.0 Safari/537.36" version="28.2.5">
  <diagram name="Trang-1" id="c-3jIeCCYz7Tq0OsPH7o">
    <mxGraphModel dx="872" dy="473" grid="1" gridSize="10" guides="1" tooltips="1" connect="1" arrows="1" fold="1" page="1" pageScale="1" pageWidth="827" pageHeight="1169" math="0" shadow="0">
      <root>
        <mxCell id="0" />
        <mxCell id="1" parent="0" />
        <mxCell id="MYVVu8dxnZUvbPhZMtCI-12" style="edgeStyle=orthogonalEdgeStyle;rounded=0;orthogonalLoop=1;jettySize=auto;html=1;exitX=0.5;exitY=1;exitDx=0;exitDy=0;entryX=0.5;entryY=0;entryDx=0;entryDy=0;" edge="1" parent="1" source="MYVVu8dxnZUvbPhZMtCI-1" target="MYVVu8dxnZUvbPhZMtCI-2">
          <mxGeometry relative="1" as="geometry" />
        </mxCell>
        <mxCell id="MYVVu8dxnZUvbPhZMtCI-1" value="Start" style="ellipse;whiteSpace=wrap;html=1;" vertex="1" parent="1">
          <mxGeometry x="340" y="40" width="120" height="80" as="geometry" />
        </mxCell>
        <mxCell id="MYVVu8dxnZUvbPhZMtCI-13" style="edgeStyle=orthogonalEdgeStyle;rounded=0;orthogonalLoop=1;jettySize=auto;html=1;exitX=0.5;exitY=1;exitDx=0;exitDy=0;entryX=0.5;entryY=0;entryDx=0;entryDy=0;" edge="1" parent="1" source="MYVVu8dxnZUvbPhZMtCI-2" target="MYVVu8dxnZUvbPhZMtCI-4">
          <mxGeometry relative="1" as="geometry" />
        </mxCell>
        <mxCell id="MYVVu8dxnZUvbPhZMtCI-2" value="Nhập a,b" style="shape=parallelogram;perimeter=parallelogramPerimeter;whiteSpace=wrap;html=1;fixedSize=1;" vertex="1" parent="1">
          <mxGeometry x="340" y="160" width="120" height="60" as="geometry" />
        </mxCell>
        <mxCell id="MYVVu8dxnZUvbPhZMtCI-14" style="edgeStyle=orthogonalEdgeStyle;rounded=0;orthogonalLoop=1;jettySize=auto;html=1;exitX=0.5;exitY=1;exitDx=0;exitDy=0;entryX=0.5;entryY=0;entryDx=0;entryDy=0;" edge="1" parent="1" source="MYVVu8dxnZUvbPhZMtCI-4" target="MYVVu8dxnZUvbPhZMtCI-5">
          <mxGeometry relative="1" as="geometry" />
        </mxCell>
        <mxCell id="MYVVu8dxnZUvbPhZMtCI-17" style="edgeStyle=orthogonalEdgeStyle;rounded=0;orthogonalLoop=1;jettySize=auto;html=1;exitX=1;exitY=0.5;exitDx=0;exitDy=0;entryX=0;entryY=0.5;entryDx=0;entryDy=0;" edge="1" parent="1" source="MYVVu8dxnZUvbPhZMtCI-4" target="MYVVu8dxnZUvbPhZMtCI-10">
          <mxGeometry relative="1" as="geometry" />
        </mxCell>
        <mxCell id="MYVVu8dxnZUvbPhZMtCI-4" value="a = 0?" style="rhombus;whiteSpace=wrap;html=1;" vertex="1" parent="1">
          <mxGeometry x="360" y="260" width="80" height="80" as="geometry" />
        </mxCell>
        <mxCell id="MYVVu8dxnZUvbPhZMtCI-15" style="edgeStyle=orthogonalEdgeStyle;rounded=0;orthogonalLoop=1;jettySize=auto;html=1;exitX=0.5;exitY=1;exitDx=0;exitDy=0;" edge="1" parent="1" source="MYVVu8dxnZUvbPhZMtCI-5" target="MYVVu8dxnZUvbPhZMtCI-6">
          <mxGeometry relative="1" as="geometry" />
        </mxCell>
        <mxCell id="MYVVu8dxnZUvbPhZMtCI-16" style="edgeStyle=orthogonalEdgeStyle;rounded=0;orthogonalLoop=1;jettySize=auto;html=1;exitX=0.5;exitY=1;exitDx=0;exitDy=0;entryX=0.5;entryY=0;entryDx=0;entryDy=0;" edge="1" parent="1" source="MYVVu8dxnZUvbPhZMtCI-5" target="MYVVu8dxnZUvbPhZMtCI-7">
          <mxGeometry relative="1" as="geometry" />
        </mxCell>
        <mxCell id="MYVVu8dxnZUvbPhZMtCI-5" value="b = 0?" style="rhombus;whiteSpace=wrap;html=1;" vertex="1" parent="1">
          <mxGeometry x="360" y="380" width="80" height="80" as="geometry" />
        </mxCell>
        <mxCell id="MYVVu8dxnZUvbPhZMtCI-20" style="edgeStyle=orthogonalEdgeStyle;rounded=0;orthogonalLoop=1;jettySize=auto;html=1;exitX=0.5;exitY=1;exitDx=0;exitDy=0;" edge="1" parent="1" source="MYVVu8dxnZUvbPhZMtCI-6" target="MYVVu8dxnZUvbPhZMtCI-19">
          <mxGeometry relative="1" as="geometry" />
        </mxCell>
        <mxCell id="MYVVu8dxnZUvbPhZMtCI-6" value="Vô số nghiệm" style="shape=parallelogram;perimeter=parallelogramPerimeter;whiteSpace=wrap;html=1;fixedSize=1;" vertex="1" parent="1">
          <mxGeometry x="200" y="500" width="120" height="60" as="geometry" />
        </mxCell>
        <mxCell id="MYVVu8dxnZUvbPhZMtCI-21" style="edgeStyle=orthogonalEdgeStyle;rounded=0;orthogonalLoop=1;jettySize=auto;html=1;exitX=0.5;exitY=1;exitDx=0;exitDy=0;entryX=0.5;entryY=0;entryDx=0;entryDy=0;" edge="1" parent="1" source="MYVVu8dxnZUvbPhZMtCI-7" target="MYVVu8dxnZUvbPhZMtCI-19">
          <mxGeometry relative="1" as="geometry" />
        </mxCell>
        <mxCell id="MYVVu8dxnZUvbPhZMtCI-7" value="Vô nghiệm" style="shape=parallelogram;perimeter=parallelogramPerimeter;whiteSpace=wrap;html=1;fixedSize=1;" vertex="1" parent="1">
          <mxGeometry x="480" y="500" width="120" height="60" as="geometry" />
        </mxCell>
        <mxCell id="MYVVu8dxnZUvbPhZMtCI-18" style="edgeStyle=orthogonalEdgeStyle;rounded=0;orthogonalLoop=1;jettySize=auto;html=1;exitX=0.5;exitY=1;exitDx=0;exitDy=0;entryX=0.5;entryY=0;entryDx=0;entryDy=0;" edge="1" parent="1" source="MYVVu8dxnZUvbPhZMtCI-10" target="MYVVu8dxnZUvbPhZMtCI-11">
          <mxGeometry relative="1" as="geometry" />
        </mxCell>
        <mxCell id="MYVVu8dxnZUvbPhZMtCI-10" value="x = -b / a" style="rounded=0;whiteSpace=wrap;html=1;" vertex="1" parent="1">
          <mxGeometry x="640" y="270" width="120" height="60" as="geometry" />
        </mxCell>
        <mxCell id="MYVVu8dxnZUvbPhZMtCI-22" style="edgeStyle=orthogonalEdgeStyle;rounded=0;orthogonalLoop=1;jettySize=auto;html=1;exitX=0.5;exitY=1;exitDx=0;exitDy=0;entryX=0.5;entryY=0;entryDx=0;entryDy=0;" edge="1" parent="1" source="MYVVu8dxnZUvbPhZMtCI-11" target="MYVVu8dxnZUvbPhZMtCI-19">
          <mxGeometry relative="1" as="geometry" />
        </mxCell>
        <mxCell id="MYVVu8dxnZUvbPhZMtCI-11" value="x" style="shape=parallelogram;perimeter=parallelogramPerimeter;whiteSpace=wrap;html=1;fixedSize=1;" vertex="1" parent="1">
          <mxGeometry x="640" y="500" width="120" height="60" as="geometry" />
        </mxCell>
        <mxCell id="MYVVu8dxnZUvbPhZMtCI-19" value="End" style="ellipse;whiteSpace=wrap;html=1;" vertex="1" parent="1">
          <mxGeometry x="340" y="600" width="120" height="80" as="geometry" />
        </mxCell>
        <mxCell id="MYVVu8dxnZUvbPhZMtCI-23" value="True" style="text;html=1;align=center;verticalAlign=middle;whiteSpace=wrap;rounded=0;" vertex="1" parent="1">
          <mxGeometry x="400" y="350" width="60" height="30" as="geometry" />
        </mxCell>
        <mxCell id="MYVVu8dxnZUvbPhZMtCI-25" value="True" style="text;html=1;align=center;verticalAlign=middle;whiteSpace=wrap;rounded=0;" vertex="1" parent="1">
          <mxGeometry x="290" y="450" width="60" height="30" as="geometry" />
        </mxCell>
        <mxCell id="MYVVu8dxnZUvbPhZMtCI-26" value="False" style="text;html=1;align=center;verticalAlign=middle;whiteSpace=wrap;rounded=0;" vertex="1" parent="1">
          <mxGeometry x="500" y="270" width="60" height="30" as="geometry" />
        </mxCell>
        <mxCell id="MYVVu8dxnZUvbPhZMtCI-27" value="False" style="text;html=1;align=center;verticalAlign=middle;whiteSpace=wrap;rounded=0;" vertex="1" parent="1">
          <mxGeometry x="440" y="450" width="60" height="30" as="geometry" />
        </mxCell>
      </root>
    </mxGraphModel>
  </diagram>
</mxfile>
